<svg class="tds-icon tds-icon-speaker-high" viewBox="0 0 24 24" xmlns="http://www.w3.org/2000/svg"><path fill="currentColor" d="M11.995 4.133a.98.98 0 0 0-.635.234L7 8H4a1 1 0 0 0-1 1v6a1 1 0 0 0 1 1h3l4.36 3.633a1 1 0 0 0 1.64-.768V5.135a1 1 0 0 0-1.005-1.002M11.5 17.797l-3.54-2.95A1.5 1.5 0 0 0 7 14.5H4.5v-5H7c.35 0 .69-.123.96-.348l3.54-2.95zm4.94-9.76c.623 1.237.939 2.57.939 3.963s-.316 2.726-.938 3.962a.75.75 0 1 1-1.34-.674c.516-1.025.778-2.131.778-3.288s-.262-2.263-.778-3.288a.75.75 0 0 1 1.34-.674zM20.998 12a14.24 14.24 0 0 1-1.53 6.462.75.75 0 1 1-1.34-.674c.909-1.805 1.37-3.752 1.37-5.788s-.461-3.983-1.37-5.788a.75.75 0 0 1 1.34-.674A14.2 14.2 0 0 1 20.996 12z"></path></svg>