<svg class="tds-icon tds-icon-wifi" viewBox="0 0 24 24" xmlns="http://www.w3.org/2000/svg"><path fill="currentColor" d="M21.687 7.627A14.7 14.7 0 0 0 12 4a14.7 14.7 0 0 0-9.687 3.627.72.72 0 0 0-.039 1.04.784.784 0 0 0 1.082.04A13.2 13.2 0 0 1 12 5.5c3.303 0 6.324 1.209 8.644 3.208a.784.784 0 0 0 1.082-.041.72.72 0 0 0-.039-1.04M12 19.5a1 1 0 1 1 0-2 1 1 0 0 1 0 2m-6.63-7.572c-.28-.299-.27-.768.042-1.031A10.2 10.2 0 0 1 12 8.5c2.508 0 4.806.9 6.588 2.397.313.263.322.732.043 1.03-.287.306-.768.315-1.092.049A8.7 8.7 0 0 0 12 10c-2.102 0-4.03.74-5.539 1.976-.324.265-.805.257-1.091-.049Zm3.11 2.276c-.32.247-.324.712-.048 1.005.29.31.777.308 1.124.064A4.23 4.23 0 0 1 12 14.5c.91 0 1.753.286 2.444.773.347.244.833.245 1.123-.063.277-.294.273-.76-.046-1.006A5.73 5.73 0 0 0 12 13c-1.326 0-2.548.45-3.52 1.204"></path></svg>